<?xml version="1.0" standalone="no"?>
<!DOCTYPE svg PUBLIC "-//W3C//DTD SVG 20010904//EN"
 "http://www.w3.org/TR/2001/REC-SVG-20010904/DTD/svg10.dtd">
<svg version="1.0" xmlns="http://www.w3.org/2000/svg"
 width="1920.000000pt" height="1080.000000pt" viewBox="0 0 1920.000000 1080.000000"
 preserveAspectRatio="xMidYMid meet">

<g transform="translate(0.000000,1080.000000) scale(0.100000,-0.100000)"
fill="#000000" stroke="none">
<path d="M13313 10773 c-9 -6 7 -16 49 -31 204 -74 335 -207 398 -404 18 -56
22 -92 22 -206 0 -148 -3 -169 -33 -307 -39 -172 -106 -346 -211 -545 -85
-162 -222 -387 -631 -1035 -254 -402 -381 -609 -467 -765 -63 -113 -198 -378
-222 -435 -9 -22 -24 -58 -33 -80 -31 -74 -67 -187 -61 -192 3 -3 47 -7 98 -8
115 -4 252 -27 348 -60 78 -27 215 -92 230 -110 9 -11 -6 -66 -34 -130 -8 -16
-17 -41 -21 -55 -4 -14 -11 -29 -15 -35 -4 -5 -13 -27 -20 -48 -7 -22 -18 -51
-26 -65 -8 -15 -14 -33 -14 -40 0 -8 -6 -26 -14 -40 -7 -15 -33 -76 -56 -137
-24 -60 -51 -129 -61 -152 -11 -23 -19 -45 -19 -48 0 -3 -8 -25 -19 -48 -10
-23 -22 -57 -26 -74 -3 -18 -10 -33 -15 -33 -4 0 -10 -13 -13 -30 -4 -16 -16
-50 -27 -74 -11 -25 -20 -49 -20 -53 0 -4 -6 -20 -14 -35 -8 -14 -19 -43 -26
-63 -7 -20 -18 -49 -26 -63 -8 -15 -14 -31 -14 -36 0 -10 -98 -257 -131 -333
-11 -23 -19 -47 -19 -53 0 -7 -6 -24 -14 -38 -8 -15 -28 -65 -45 -112 -18 -47
-36 -94 -41 -105 -18 -40 -43 -102 -76 -193 l-34 -92 663 0 662 0 12 28 c7 15
18 43 24 62 7 19 15 40 19 45 4 6 13 28 20 50 7 22 21 55 31 72 10 18 48 108
84 200 36 93 107 273 158 402 l92 233 50 -6 c51 -6 177 -15 560 -41 981 -67
1413 -117 1960 -227 439 -88 875 -223 1195 -370 341 -157 588 -300 835 -484
194 -145 411 -349 545 -512 19 -24 43 -53 54 -65 10 -12 30 -38 45 -57 14 -19
28 -37 31 -40 19 -18 130 -194 125 -198 -3 -3 -20 8 -38 25 -17 16 -40 36 -50
44 -10 8 -26 21 -35 30 -37 35 -340 275 -449 356 -629 465 -1246 710 -2048
812 -230 30 -379 41 -645 47 -167 4 -231 3 -220 -5 8 -6 25 -11 36 -11 36 0
390 -69 594 -116 63 -14 142 -32 175 -40 112 -25 529 -132 679 -173 640 -178
1150 -427 1646 -804 123 -94 188 -148 328 -275 l102 -93 -2 2483 -3 2484 -37
34 c-21 19 -38 39 -38 44 0 5 -27 40 -60 77 -33 37 -60 71 -60 76 0 4 -13 19
-30 33 -16 14 -30 29 -30 34 0 8 -105 136 -150 182 -11 12 -20 24 -20 28 0 4
-27 38 -60 75 -33 37 -60 71 -60 75 0 4 -11 20 -24 34 -66 73 -156 181 -156
187 0 4 -38 51 -85 105 -47 54 -85 101 -85 104 0 4 -40 53 -90 110 -49 58 -90
107 -90 111 0 6 -112 140 -150 180 -11 12 -20 24 -20 29 0 4 -27 38 -60 75
-33 37 -60 71 -60 75 0 4 -16 22 -35 40 -19 19 -35 37 -35 41 0 4 -25 35 -55
70 -30 34 -55 66 -55 70 0 4 -16 22 -35 41 -19 18 -35 36 -35 40 0 4 -27 38
-60 75 -33 37 -60 71 -60 75 0 5 -9 17 -20 29 -36 37 -150 173 -150 179 0 4
-32 44 -72 91 l-72 85 -1176 0 c-647 0 -1507 3 -1911 6 -419 3 -739 2 -746 -3z"/>
<path d="M13007 9740 c-3 -8 -27 -87 -53 -175 -165 -561 -361 -1094 -683
-1854 -62 -146 -76 -190 -42 -136 55 89 221 374 316 539 327 572 467 982 482
1406 4 142 -6 257 -20 220z"/>
</g>
</svg>
